<?xml version="1.0" standalone="no"?>
<!DOCTYPE svg PUBLIC "-//W3C//DTD SVG 1.1//EN" "http://www.w3.org/Graphics/SVG/1.1/DTD/svg11.dtd" >
<svg xmlns="http://www.w3.org/2000/svg">
<metadata>Generated by IcoMoon</metadata>
<defs>
<font id="icomoon" horiz-adv-x="1024">
<font-face units-per-em="1024" ascent="960" descent="-64" />
<missing-glyph horiz-adv-x="1024" />
<glyph unicode="&#x20;" horiz-adv-x="512" d="" />
<glyph unicode="&#xe900;" glyph-name="mouse-scroll" horiz-adv-x="576" d="M288 944.001c-0.616 0.005-1.344 0.008-2.075 0.008-152.223 0-275.758-122.816-276.926-274.763l-0.001-0.111v-4.133h41.333c-0.006 0.617-0.009 1.345-0.009 2.077 0 129.395 104.313 234.426 233.432 235.59l0.11 0.001h4.133zM288 902.668c0.617 0.006 1.345 0.009 2.077 0.009 129.395 0 234.426-104.313 235.59-233.432l0.001-0.11v-4.133h41.333c0.005 0.616 0.008 1.344 0.008 2.075 0 152.223-122.816 275.758-274.763 276.926l-0.111 0.001h-4.133zM525.667 231.001c0.006-0.617 0.009-1.345 0.009-2.077 0-129.395-104.313-234.426-233.432-235.59l-0.11-0.001h-4.133v-41.333c0.616-0.005 1.344-0.008 2.075-0.008 152.223 0 275.758 122.816 276.926 274.763l0.001 0.111v4.133zM288-6.666c-0.617-0.006-1.345-0.009-2.077-0.009-129.395 0-234.426 104.313-235.59 233.432l-0.001 0.11v4.133h-41.333c-0.005-0.616-0.008-1.344-0.008-2.075 0-152.223 122.816-275.758 274.763-276.926l0.111-0.001h4.133zM50.333 231.001v434h-41.333v-434zM525.667 665.001v-434h41.333v434zM195 311.601c3.299 49.131 43.469 87.864 92.903 88.866l0.097 0.002c49.792-2.084 89.774-41.35 92.984-90.645l0.016-0.288v-109.533c-2.23-48.876-41.867-87.791-90.83-88.865l-0.102-0.002c-39.267 0-95.067 35.133-95.067 88.867z" />
<glyph unicode="&#xe901;" glyph-name="plus" d="M511.999 3.048c-6.095 0-18.286 6.095-18.286 18.286v853.333c0 6.095 6.095 18.286 18.286 18.286s18.286-6.095 18.286-18.286v-853.333c-6.095-12.19-12.19-18.286-18.286-18.286zM938.666 429.715h-853.333c-6.095 0-18.286 6.095-18.286 18.286s6.095 18.286 18.286 18.286h853.333c6.095 0 18.286-6.095 18.286-18.286s-12.19-18.286-18.286-18.286z" />
<glyph unicode="&#xe902;" glyph-name="arrow-right" d="M532.702 2.004h-16.34c-2.582 2.877-4.161 6.701-4.161 10.894s1.579 8.016 4.174 10.909l-0.013-0.015 419.404 419.404-419.404 424.851c-2.582 2.877-4.161 6.701-4.161 10.894s1.579 8.016 4.174 10.909l-0.013-0.015c2.877 2.582 6.701 4.161 10.894 4.161s8.016-1.579 10.909-4.174l-0.015 0.013 424.851-424.851c4.738-5.633 7.616-12.966 7.616-20.972 0-4.21-0.796-8.235-2.246-11.931l0.077 0.222-424.851-424.851zM924.872 432.302h-855.149c-9.025 0-16.34 7.316-16.34 16.34v0c0 9.025 7.316 16.34 16.34 16.34v0h855.149c9.025 0 16.34-7.316 16.34-16.34s-7.316-16.34-16.34-16.34v0z" />
<glyph unicode="&#xe903;" glyph-name="flag" d="M704.985 230.071c-76.144 0-141.785 26.256-202.174 49.887s-115.528 47.262-183.794 47.262c-128.656 0-173.293-39.385-173.293-42.010-7.877-7.877-18.379-7.877-28.882-5.251-10.503 5.251-15.754 13.128-15.754 23.631v577.641c0 7.877 2.626 13.128 7.877 18.379s60.39 55.138 210.051 55.138c76.143 0 141.784-26.256 202.174-49.887s115.528-47.262 183.795-47.262c128.656 0 173.292 39.385 173.292 42.011 7.877 7.877 18.379 7.877 28.882 5.251 10.503-5.251 15.754-13.128 15.754-23.631v-577.641c0-7.877-2.626-13.128-7.877-18.379-2.626-5.251-57.764-55.138-210.051-55.138zM321.642 379.733c76.143 0 141.784-26.256 202.174-49.887s115.528-47.262 183.795-47.262c99.774 0 149.662 23.631 165.415 34.133v517.252c-34.133-13.128-86.646-28.882-165.415-28.882-76.144 0-141.785 26.257-202.174 49.887s-115.528 47.261-183.794 47.261c-99.774 0-149.662-23.631-165.416-34.133v-517.252c31.508 13.128 84.021 28.882 165.416 28.882zM127.344-58.749c-15.754 0-26.256 10.503-26.256 26.256v336.082c0 15.754 10.503 26.256 26.256 26.256s26.256-10.503 26.256-26.256v-336.082c0-13.128-10.503-26.256-26.256-26.256z" />
<glyph unicode="&#xe904;" glyph-name="guests" d="M726.505 57.066c-4.181 0-12.543 4.181-12.543 12.543v83.622c0 41.811-16.725 79.441-45.992 112.89s-66.898 45.992-112.89 45.992h-334.488c-41.811 0-79.441-16.725-112.89-45.992-29.268-29.268-45.992-71.078-45.992-112.89v-83.622c0-4.181-4.181-12.543-12.543-12.543s-12.543 4.181-12.543 12.543v83.622c0 45.992 16.724 91.985 50.173 125.433s79.441 50.173 125.433 50.173h334.488c45.992 0 91.985-16.725 125.433-50.173s50.173-79.441 50.173-125.433v-83.622c16.725-4.181 12.543-12.543 4.181-12.543zM392.016 479.358c-96.165 0-179.788 79.441-179.788 179.788s79.441 179.788 179.788 179.788c100.347 0 179.788-79.441 179.788-179.788s-79.441-179.788-179.788-179.788zM392.016 813.847c-87.803 0-158.882-71.078-158.882-158.882s71.078-158.882 158.882-158.882c87.803 0 158.882 71.078 158.882 158.882s-71.078 158.882-158.882 158.882zM977.372 57.066c-4.181 0-12.543 4.181-12.543 12.543v83.622c0 33.449-12.543 66.898-33.449 96.165s-50.173 45.992-83.622 54.355c-4.181 0-8.362 8.362-8.362 12.543s8.362 8.362 12.543 8.362c37.63-8.362 71.078-33.449 96.165-62.717s37.63-71.078 37.63-108.708v-83.622c4.181-4.181 0-12.543-8.362-12.543zM684.694 483.538c-4.181 0-8.362 4.181-8.362 8.362s0 12.543 8.362 12.543c33.449 8.362 62.717 29.268 83.622 54.355 20.905 29.268 33.449 62.717 33.449 96.165s-12.543 66.898-33.449 96.165c-20.905 29.268-50.173 45.992-83.622 54.354-4.181 0-8.362 8.362-8.362 12.543s8.362 8.362 12.543 8.362c37.63-8.362 71.078-33.449 96.165-62.717s37.63-71.078 37.63-108.708c0-37.63-12.543-79.441-37.63-108.708-25.087-33.449-58.535-54.355-100.347-62.717 0 0 4.181 0 0 0z" />
<glyph unicode="&#xe905;" glyph-name="calendar" d="M837.818-31.417h-651.636c-55.855 0-107.055 46.545-107.055 107.055v651.635c0 55.855 46.545 107.055 107.055 107.055h651.636c55.855 0 107.055-46.545 107.055-107.055v-651.635c-4.655-60.509-51.2-107.055-107.055-107.055zM186.182 806.4c-46.545 0-83.782-37.236-83.782-83.782v-651.635c0-46.545 37.236-83.782 83.782-83.782h651.636c46.545 0 83.782 37.236 83.782 83.782v651.635c0 46.545-37.236 83.782-83.782 83.782h-651.636zM698.182 713.309c-4.655 0-13.964 4.655-13.964 13.964v186.182c0 4.655 4.655 13.963 13.964 13.963s13.964-4.654 13.964-13.963v-186.182c-4.655-9.309-9.309-13.964-13.964-13.964zM325.818 713.309c-4.655 0-13.964 4.655-13.964 13.964v186.182c0 4.655 4.655 13.963 13.964 13.963s13.964-4.654 13.964-13.963v-186.182c-4.655-9.309-9.31-13.964-13.964-13.964zM930.909 527.127h-837.818c-4.655 0-13.964 4.655-13.964 13.964s4.655 13.964 13.964 13.964h837.818c4.655 0 13.964-4.655 13.964-13.964s-9.309-13.964-13.964-13.964z" />
<glyph unicode="&#xe906;" glyph-name="cross" d="M45.648-30.539c-4.239 0-4.239 0-8.478 4.239s-4.239 12.718 0 16.958l932.702 932.702c4.239 4.239 12.718 4.239 16.958 0s4.239-12.718 0-16.958l-932.702-932.702c-4.239-4.239-8.478-4.239-8.478-4.239zM978.351-30.539c-4.239 0-4.239 0-8.478 4.239l-932.702 932.702c-4.239 4.239-4.239 12.718 0 16.958s12.718 4.239 16.958 0l932.702-932.702c4.239-4.239 4.239-12.718 0-16.958s-8.478-4.239-8.478-4.239z" />
<glyph unicode="&#xe907;" glyph-name="play" d="M234.056 806.143l555.886-358.4-555.886-358.4zM234.056 16.2h-36.571c-21.718 14.281-36.001 38.327-36.57 65.744l-0.001 0.085v724.114c0.57 27.501 14.853 51.548 36.268 65.641l0.303 0.187c9.007 4.93 19.734 7.83 31.137 7.83 16.017 0 30.698-5.721 42.112-15.23l-0.106 0.086 563.2-358.4c17.845-13.486 29.257-34.667 29.257-58.514s-11.412-45.028-29.073-58.381l-0.184-0.133-563.2-358.4zM307.199 674.486v-453.486l351.086 226.743z" />
<glyph unicode="&#xe909;" glyph-name="grid" d="M53.895 555.789v377.263h-53.895v-377.263h53.895zM404.211 582.737h-377.263v-53.895h377.263v53.895zM377.263 933.053v-377.263h53.895v377.263h-53.895zM26.947 906.105h377.263v53.895h-377.263v-53.895zM26.947 555.789h-26.947c0-16.168 10.779-26.947 26.947-26.947v26.947zM404.211 555.789v-26.947c16.168 0 26.947 10.779 26.947 26.947h-26.947zM404.211 933.053h26.947c0 16.168-10.779 26.947-26.947 26.947v-26.947zM26.947 933.053v26.947c-16.168 0-26.947-10.779-26.947-26.947h26.947zM646.737 555.789v377.263h-53.895v-377.263h53.895zM997.053 582.737h-377.263v-53.895h377.263v53.895zM970.105 933.053v-377.263h53.895v377.263h-53.895zM619.789 906.105h377.263v53.895h-377.263v-53.895zM619.789 555.789h-26.947c0-16.168 10.779-26.947 26.947-26.947v26.947zM997.053 555.789v-26.947c16.168 0 26.947 10.779 26.947 26.947h-26.947zM997.053 933.053h26.947c0 16.168-10.779 26.947-26.947 26.947v-26.947zM619.789 933.053v26.947c-16.168 0-26.947-10.779-26.947-26.947h26.947zM808.421-37.053c104.179 0 188.632 84.453 188.632 188.632s-84.453 188.632-188.632 188.632c-104.179 0-188.632-84.453-188.632-188.632s84.453-188.632 188.632-188.632zM808.421 367.158c-118.568 0-215.579-97.011-215.579-215.579h53.895c0 91.621 70.063 161.684 161.684 161.684v53.895zM808.421 313.263c91.621 0 161.684-70.063 161.684-161.684h53.895c0 118.568-97.011 215.579-215.579 215.579v-53.895zM970.105 151.579c0-91.621-70.063-161.684-161.684-161.684v-53.895c118.568 0 215.579 97.011 215.579 215.579h-53.895zM808.421-10.105c-91.621 0-161.684 70.063-161.684 161.684h-53.895c0-118.568 97.011-215.579 215.579-215.579v53.895zM53.895-37.053v377.263h-53.895v-377.263h53.895zM404.211-10.105h-377.263v-53.895h377.263v53.895zM377.263 340.211v-377.263h53.895v377.263h-53.895zM26.947 313.263h377.263v53.895h-377.263v-53.895zM26.947-37.053h-26.947c0-16.168 10.779-26.947 26.947-26.947v26.947zM404.211-37.053v-26.947c16.168 0 26.947 10.779 26.947 26.947h-26.947zM404.211 340.211h26.947c0 16.168-10.779 26.947-26.947 26.947v-26.947zM26.947 340.211v26.947c-16.168 0-26.947-10.779-26.947-26.947h26.947z" />
<glyph unicode="&#xe90c;" glyph-name="circle-arrow-right" d="M510.72 942.080c273.92 0 494.080-222.72 494.080-494.080h12.8c0 281.6-227.84 506.88-506.88 506.88v-12.8zM16.64 448c0 273.92 222.72 494.080 494.080 494.080v12.8c-281.6 0-506.88-227.84-506.88-506.88h12.8zM510.72-46.080c-273.92 0-494.080 222.72-494.080 494.080h-12.8c0-281.6 227.84-506.88 506.88-506.88v12.8zM1007.36 448c0-273.92-222.72-494.080-494.080-494.080v-12.8c281.6 0 506.88 227.84 506.88 506.88h-12.8zM715.52 453.12l-199.68 199.68-10.24-10.24 199.68-199.68 10.24 10.24zM515.84 243.2l199.68 199.68-10.24 10.24-199.68-199.68 10.24-10.24zM515.84 652.8c-2.56 2.56-7.68 2.56-10.24 0s-2.56-7.68 0-10.24l10.24 10.24zM712.96 448l5.12-5.12c0 0 2.56 2.56 2.56 5.12s0 2.56-2.56 5.12l-5.12-5.12zM505.6 250.88c-2.56-2.56-2.56-7.68 0-10.24s7.68-2.56 10.24 0l-10.24 10.24zM311.040 440.32h401.92v12.8h-401.92v-12.8zM712.96 440.32c2.56 0 7.68 2.56 7.68 7.68s-2.56 7.68-7.68 7.68v-15.36zM311.040 453.12c-2.56 0-7.68-2.56-7.68-7.68s2.56-7.68 7.68-7.68v15.36z" />
<glyph unicode="&#xe90d;" glyph-name="double-forward" d="M588.799 40c-12.8 0-12.797 0-25.597 12.8s-12.8 38.4 0 51.2l345.597 345.599-345.597 345.6c-12.8 12.8-12.8 38.401 0 51.201s38.399 12.8 51.199 0l371.199-371.201c12.8-12.8 12.8-38.399 0-51.199l-371.199-371.2c-12.8-12.8-25.601-12.8-25.601-12.8zM64.002 40c-12.8 0-12.802 0-25.602 12.8s-12.8 38.4 0 51.2l345.601 345.599-345.601 345.6c-12.8 12.8-12.8 38.401 0 51.201s38.399 12.8 51.199 0l371.199-371.201c0 0 12.8-12.8 12.8-25.6s0-12.799-12.8-25.599l-371.199-371.2c-12.8-12.8-25.598-12.8-25.598-12.8z" />
<glyph unicode="&#xe90e;" glyph-name="sun" d="M511.352 211.443c-130.916 0-237.205 106.289-237.205 237.205s107.585 235.909 237.205 235.909c129.62 0 237.205-106.289 237.205-237.205s-106.289-235.909-237.205-235.909zM511.352 658.633c-116.658 0-211.281-94.623-211.281-211.281s94.623-211.281 211.281-211.281c116.658 0 211.281 94.623 211.281 211.281s-94.623 211.281-211.281 211.281zM511.352 838.805c-7.777 0-12.962 5.185-12.962 12.962v89.438c0 7.777 5.185 12.962 12.962 12.962s12.962-5.185 12.962-12.962v-89.438c0-7.777-5.185-12.962-12.962-12.962zM511.352-58.167c-7.777 0-12.962 5.185-12.962 12.962v89.438c0 7.777 5.185 12.962 12.962 12.962s12.962-5.185 12.962-12.962v-89.438c0-6.481-5.185-12.962-12.962-12.962zM226.187 719.554c-3.889 0-6.481 1.296-9.073 3.889l-63.514 63.514c-5.185 5.185-5.185 12.962 0 18.147s12.962 5.185 18.147 0l63.514-63.514c5.185-5.185 5.185-12.962 0-18.147-1.296-2.592-5.185-3.889-9.073-3.889zM860.030 85.711c-3.889 0-6.481 1.296-9.073 3.889l-63.514 63.514c-5.185 5.185-5.185 12.962 0 18.147s12.962 5.185 18.147 0l63.514-63.514c5.185-5.185 5.185-12.962 0-18.147-1.296-2.592-5.185-3.889-9.073-3.889zM108.233 434.39h-89.438c-7.777 0-12.962 5.185-12.962 12.962s5.185 12.962 12.962 12.962h89.438c7.777 0 12.962-5.185 12.962-12.962s-5.185-12.962-12.962-12.962zM1005.205 434.39h-89.438c-7.777 0-12.962 5.185-12.962 12.962s5.185 12.962 12.962 12.962h89.438c7.777 0 12.962-5.185 12.962-12.962s-6.481-12.962-12.962-12.962zM162.674 85.711c-3.889 0-6.481 1.296-9.073 3.889-5.185 5.185-5.185 12.962 0 18.147l63.514 63.514c5.185 5.185 12.962 5.185 18.147 0s5.185-12.962 0-18.147l-63.514-63.514c-2.592-2.592-5.185-3.889-9.073-3.889zM796.517 719.554c-3.889 0-6.481 1.296-9.073 3.889-5.185 5.185-5.185 12.962 0 18.147l63.514 63.514c5.185 5.185 12.962 5.185 18.147 0s5.185-12.962 0-18.147l-63.514-63.514c-2.592-2.592-5.185-3.889-9.073-3.889z" />
<glyph unicode="&#xe90f;" glyph-name="moon" d="M510.946-55.665c-35.721 0-73.823 4.763-109.544 11.907-92.874 21.433-178.603 69.060-247.664 135.74-69.060 69.060-114.307 154.791-135.74 247.665s-14.288 190.512 19.051 281.005c33.34 90.493 90.493 169.079 166.698 228.614s166.699 95.256 261.955 102.4c9.526 0 19.051-4.763 23.814-11.907s4.76-19.051-2.384-26.195c-50.009-66.679-73.821-150.028-66.677-235.759 7.144-83.349 42.863-161.935 102.398-221.47s138.123-95.256 221.472-102.4c83.349-7.144 166.695 16.67 235.756 66.679 7.144 4.763 16.67 7.144 26.198 2.381 7.142-4.763 11.907-14.288 11.907-23.814-9.528-95.256-45.249-185.749-102.402-261.953-59.535-76.205-138.121-133.358-228.614-166.698-59.535-16.67-119.070-26.195-176.223-26.195zM418.074 899.275c-69.060-14.288-133.358-42.865-188.131-85.73-69.060-52.391-121.451-123.833-150.028-207.182-28.577-80.967-35.721-171.46-16.67-254.809s61.916-161.935 123.833-223.851c61.915-61.916 138.12-104.781 223.852-123.833 85.73-19.051 173.839-14.288 254.807 16.67 80.967 28.577 152.409 80.967 207.181 150.028 42.865 54.772 71.444 119.070 85.733 188.13-66.679-35.721-145.267-54.772-221.472-47.628-95.256 7.144-185.749 47.628-252.428 116.688-66.679 66.679-109.544 157.172-116.688 252.428-4.763 73.823 11.909 152.41 50.012 219.089z" />
<glyph unicode="&#xe910;" glyph-name="scale" d="M274.618-30.255c0-9.309 4.654-18.618 9.309-23.273 6.982-6.982 13.964-9.309 23.273-9.309h409.6c9.309 0 18.618 4.655 23.273 9.309 6.982 6.982 9.309 13.964 9.309 23.273v956.509c0 9.309-4.655 18.618-9.309 23.273-6.982 6.982-13.964 9.31-23.273 9.31h-409.6c-9.309 0-18.618-4.655-23.273-9.31-6.982-6.982-9.309-13.964-9.309-23.273v-956.509zM684.218 2.327h-339.782v74.473h169.891c6.982 0 13.964 2.327 20.945 9.309 4.655 4.655 9.309 13.964 9.309 20.945s-2.327 13.964-9.309 20.945c-4.655 4.655-13.964 9.309-20.945 9.309h-169.891v79.127h102.4c6.982 0 13.964 2.327 20.946 9.309s9.309 13.964 9.309 20.945c0 6.982-2.327 13.964-9.309 20.945s-13.964 9.309-20.946 9.309h-102.4v79.127h102.4c6.982 0 13.964 2.327 20.946 9.309s9.309 13.964 9.309 20.945c0 6.982-2.327 13.964-9.309 20.945s-13.964 9.309-20.946 9.309h-102.4v79.127h169.891c6.982 0 13.964 2.327 20.945 9.309 4.655 4.655 9.309 13.964 9.309 20.945s-2.327 13.964-9.309 20.945c-4.655 4.655-13.964 9.309-20.945 9.309h-169.891v79.127h102.4c6.982 0 13.964 2.327 20.946 9.309s9.309 13.964 9.309 20.945c0 6.982-2.327 13.964-9.309 20.945s-13.964 9.309-20.946 9.309h-102.4v79.127h102.4c6.982 0 13.964 2.328 20.946 9.31s9.309 13.963 9.309 20.945c0 6.982-2.327 13.964-9.309 20.945s-13.964 9.309-20.946 9.309h-102.4v74.473h342.109v-907.636h-2.327z" />
<glyph unicode="&#xe911;" glyph-name="cloud-rain" d="M692.947 31.536c-7.777 0-12.962 5.185-12.962 12.962v359.048c0 7.777 5.185 12.962 12.962 12.962s12.962-5.185 12.962-12.962v-359.048c0-6.481-6.481-12.962-12.962-12.962zM333.899 31.536c-7.777 0-12.962 5.185-12.962 12.962v359.048c0 7.777 5.185 12.962 12.962 12.962s12.962-5.185 12.962-12.962v-359.048c0-6.481-6.481-12.962-12.962-12.962zM512.775-57.902c-7.777 0-12.962 5.185-12.962 12.962v359.048c0 7.777 5.185 12.962 12.962 12.962s12.962-5.185 12.962-12.962v-359.048c0-7.777-5.185-12.962-12.962-12.962zM871.823 229.855c-5.185 0-10.37 2.592-11.666 7.777-2.592 6.481 0 14.258 6.481 16.851 44.071 19.443 80.365 53.144 102.4 97.215 22.035 42.775 28.516 92.030 19.443 139.99-10.37 46.663-36.294 90.734-73.884 120.547-37.59 31.109-84.253 47.959-133.509 47.959h-57.033c-6.481 0-11.666 3.889-12.962 10.37-14.258 53.144-40.182 102.4-76.476 142.582s-81.661 72.588-133.509 92.031c-50.552 19.443-106.289 27.22-160.729 22.035s-107.585-24.627-152.952-53.144c-45.367-29.813-84.253-69.995-111.474-117.955s-42.775-101.104-45.367-155.544c-2.592-54.441 7.777-108.881 29.813-159.433s57.033-94.623 99.808-128.324c5.185-3.889 6.481-12.962 2.592-18.147s-12.962-6.481-18.147-2.592c-45.367 36.294-82.957 84.253-106.289 137.397-24.628 53.144-34.997 112.77-32.405 171.099s19.443 116.658 49.256 167.21c29.813 50.552 71.291 94.623 120.547 125.732 49.256 32.405 106.289 51.848 164.618 58.329s117.954-2.593 172.395-23.332c54.441-20.739 103.696-55.736 142.582-99.807 36.294-41.479 63.514-90.735 79.068-143.879h46.663c54.441 0 107.585-19.443 149.063-53.144s71.291-82.957 82.957-134.805c11.666-53.144 3.889-108.881-20.739-156.841s-66.106-86.846-115.362-108.881c-1.296-1.296-3.889-1.296-5.185-1.296z" />
<glyph unicode="&#xe912;" glyph-name="wind" d="M611.38 41.022c-11.378 0-22.756 1.422-32.711 4.267-17.067 5.689-34.133 15.644-46.933 28.444-5.689 5.689-5.689 14.222 0 19.911s14.222 5.689 19.911 0c9.956-9.956 21.333-17.067 35.556-21.333 12.8-4.267 27.022-4.267 41.244-1.422s27.022 8.533 36.978 17.067c11.378 8.533 18.489 19.911 24.178 32.711s7.111 27.022 5.689 39.822c-1.422 12.8-5.689 27.022-14.222 38.4s-18.489 21.333-29.867 27.022c-12.8 7.111-25.6 9.956-39.822 9.956h-590.222c-8.533 0-14.222 5.689-14.222 14.222s5.689 14.222 14.222 14.222h590.222c18.489 0 36.978-4.267 52.622-12.8s29.867-21.333 41.244-36.978c9.956-15.644 17.067-32.711 18.489-51.2s-1.422-36.978-8.533-54.044c-7.111-17.067-18.489-32.711-32.711-44.089s-31.289-19.911-49.778-22.756c-5.689-1.422-14.222-1.422-21.333-1.422zM881.603 433.555h-860.444c-8.533 0-14.222 5.689-14.222 14.222s5.689 14.222 14.222 14.222h860.444c18.489 0 35.556 4.267 51.2 12.8s29.867 21.333 38.4 35.556c9.956 14.222 15.644 32.711 17.067 49.778s-1.422 35.556-7.111 52.622c-5.689 17.067-17.067 31.289-31.289 42.667s-29.867 18.489-48.356 22.756c-17.067 2.844-35.556 2.844-52.622-2.844s-32.711-14.222-45.511-27.022c-5.689-5.689-14.222-5.689-19.911 0s-5.689 14.222 0 19.911c15.644 15.644 35.556 27.022 56.889 34.133s44.089 7.111 66.844 2.844c21.333-4.267 42.667-14.222 59.733-28.444s31.289-32.711 39.822-54.044c8.533-21.333 11.378-44.089 9.956-65.422-2.844-22.756-9.956-44.089-22.756-62.578s-29.867-34.133-49.778-44.089c-17.067-11.378-39.822-17.067-62.578-17.067zM464.892 631.244c-1.422 0-1.422 0 0 0h-443.733c-8.533 0-14.222 5.689-14.222 14.222s5.689 14.222 14.222 14.222h442.311c14.222 0 27.022 2.844 39.822 9.956s22.756 15.644 29.867 27.022c7.111 11.378 12.8 24.178 14.222 38.4s0 28.444-5.689 39.822c-5.689 12.8-14.222 24.178-24.178 32.711-11.378 8.533-24.178 14.222-36.978 17.067-14.222 2.844-27.022 1.422-41.244-1.422-12.8-4.267-25.6-11.378-35.556-21.333-5.689-5.689-14.222-5.689-19.911 0s-5.689 14.222 0 19.911c12.8 12.8 29.867 22.756 46.933 28.444s36.978 5.689 54.044 2.845c18.489-4.267 35.556-11.378 49.778-22.756s25.6-27.022 32.711-44.089c7.111-17.067 9.956-35.555 8.533-54.044s-8.533-35.556-18.489-51.2c-9.956-15.644-24.178-28.444-41.244-36.978-15.644-8.533-34.133-12.8-51.2-12.8z" />
<glyph unicode="&#xe913;" glyph-name="compass" d="M512-58.749c-280.944 0-506.749 228.431-506.749 506.749 0 280.944 228.431 506.749 506.749 506.749 280.944 0 506.749-228.431 506.749-506.749 0-280.944-228.431-506.749-506.749-506.749zM512 902.235c-252.062 0-454.236-204.8-454.236-454.236 0-252.062 204.8-454.236 454.236-454.236s454.236 204.8 454.236 454.236c0 249.436-204.8 454.236-454.236 454.236zM307.2 216.943c-7.877 0-13.128 2.626-18.379 7.877-7.877 7.877-10.503 18.379-5.251 26.256l102.4 307.2c2.626 7.877 7.877 13.128 15.754 15.754l307.2 102.4c10.503 2.626 21.005 0 26.256-5.251 7.877-7.877 10.503-18.379 5.251-26.256l-102.4-307.2c-2.626-7.877-7.877-13.128-15.754-15.754l-307.2-102.4c-2.626-2.626-5.251-2.626-7.877-2.626zM430.605 529.394l-81.395-244.185 244.185 81.395 81.395 244.185-244.185-81.395z" />
<glyph unicode="&#xe914;" glyph-name="facebook" d="M512 947.2c-275.2 0-499.2-224-499.2-499.2s224-499.2 499.2-499.2c275.2 0 499.2 224 499.2 499.2s-220.8 499.2-499.2 499.2zM649.6 643.2h-73.6c-12.8 0-28.8-6.4-28.8-32v-67.2h102.4l-12.8-115.2h-89.6v-326.4h-134.4v326.4h-64v115.2h64v73.6c0 54.4 25.6 137.6 137.6 137.6h99.2v-112z" />
<glyph unicode="&#xe915;" glyph-name="instagram" d="M659.2 683.2h-297.6c-48 0-86.4-38.4-86.4-86.4v-297.6c0-48 38.399-86.4 86.4-86.4h297.6c48 0 86.4 38.4 86.4 86.4v297.6c0 48-38.4 86.4-86.4 86.4zM512 292.8c-86.4 0-153.6 70.4-153.6 153.6 0 86.4 70.4 153.6 153.6 153.6 86.4 0 153.6-70.4 153.6-153.6s-70.4-153.6-153.6-153.6zM672 571.2c-19.2 0-35.2 16-35.2 35.2s16 35.2 35.2 35.2c19.2 0 35.2-16 35.2-35.2s-16-35.2-35.2-35.2zM512 536c-48 0-89.6-41.6-89.6-89.6s41.6-89.6 89.6-89.6c48 0 89.6 41.6 89.6 89.6 0 51.2-41.6 89.6-89.6 89.6zM512 948.8c-275.2 0-499.2-224-499.2-499.2s220.8-502.4 499.2-502.4c278.4 0 499.2 224 499.2 499.2s-224 502.4-499.2 502.4zM812.8 299.2c0-83.2-67.2-150.4-150.4-150.4h-297.6c-83.2 0-150.399 67.2-150.399 150.4v297.6c0 83.2 67.199 150.4 150.399 150.4h297.6c83.2 0 150.4-67.2 150.4-150.4v-297.6z" />
<glyph unicode="&#xe916;" glyph-name="twitter" d="M512 947.2c-275.2 0-499.2-224-499.2-499.2s224-499.2 499.2-499.2c275.2 0 499.2 224 499.2 499.2s-224 499.2-499.2 499.2zM758.4 524.8c0-6.4 0-9.6 0-16 0-156.8-121.6-339.2-339.2-339.2-67.2 0-131.2 19.2-182.4 54.4 9.6 0 19.2-3.2 28.8-3.2 57.6 0 108.8 19.2 147.2 51.2-51.2 0-96 35.2-112 83.2 6.4 0 16-3.2 22.4-3.2 9.6 0 22.4 0 32 3.2-54.4 9.6-96 60.8-96 118.4 16-9.6 35.199-12.8 54.399-16-32 22.4-54.399 57.6-54.399 99.2 0 22.4 6.4 41.6 16 60.8 57.6-73.6 147.2-121.6 246.4-124.8-3.2 9.6-3.2 19.2-3.2 28.8 0 67.2 54.4 118.4 118.4 118.4 35.2 0 64-16 86.4-38.4 28.8 6.4 54.4 16 76.8 28.8-9.6-28.8-28.8-51.2-51.2-67.2 25.6 3.2 48 9.6 67.2 19.2-12.8-19.2-35.2-38.4-57.6-57.6z" />
<glyph unicode="&#xe917;" glyph-name="star" d="M519.876 912.739l149.664-307.201 338.706-47.261-244.185-236.308 55.138-338.708-307.198 157.538-307.202-157.538 55.14 338.708-244.185 236.308 338.709 47.261 165.413 307.201z" />
</font>
</defs>
</svg>
