<?xml version="1.0" encoding="utf-8"?>
<!-- Generator: Adobe Illustrator 19.0.0, SVG Export Plug-In . SVG Version: 6.00 Build 0)  -->
<svg version="1.1" id="Laag_1" xmlns="http://www.w3.org/2000/svg" xmlns:xlink="http://www.w3.org/1999/xlink" x="0px" y="0px"
	 viewBox="0 0 841.9 595.3" enable-background="new 0 0 841.9 595.3" xml:space="preserve">
<path fill="#FFFFFF" d="M586.4,435.7H256.3c-6.6,0-12-5.4-12-12V169.2c0-6.6,5.4-12,12-12h330.1c6.6,0,12,5.4,12,12v254.5
	C598.4,430.3,593,435.7,586.4,435.7z"/>
<path fill="#CF0A2C" d="M673.1,321.3c-13.9,12.4-18.8,36.3-10.6,53.1c8.1,16.9,0.3,35.6-17.4,41.7c-17.6,6.1-31.2,26.4-30.2,45
	c1.1,18.6-13.3,33-32,31.9c-18.6-1.2-38.9,12.4-45.1,30c-6.1,17.6-25,25.3-41.8,17.2s-40.7-3.5-53.2,10.5
	c-12.4,13.9-32.8,13.9-45.1-0.1c-12.4-14-36.4-18.8-53.2-10.7c-16.8,8.1-35.5,0.3-41.7-17.4c-6.1-17.7-26.4-31.3-45-30.2
	c-18.6,1-33-13.4-31.9-32s-12.4-39-30-45.1c-17.7-6.2-25.4-25-17.2-41.8s3.5-40.7-10.5-53.2c-13.9-12.5-13.9-32.8,0.1-45.2
	c14-12.4,18.8-36.3,10.7-53.1c-8.1-16.9-0.3-35.6,17.4-41.8c17.6-6,31.2-26.3,30.2-45c-1.1-18.6,13.4-33,32-31.9
	c18.6,1.2,38.9-12.4,45.1-30s24.9-25.3,41.7-17.2c16.8,8.2,40.8,3.5,53.2-10.4c12.4-13.9,32.8-13.9,45.1,0.1
	c12.4,14,36.4,18.8,53.2,10.7c16.8-8.1,35.6-0.3,41.7,17.4c6.1,17.6,26.3,31.2,45,30.1c18.7-1,33,13.4,31.9,32s12.4,39,30,45.1
	c17.7,6.2,25.4,25,17.2,41.8s-3.5,40.7,10.4,53.2C687.2,288.6,687.1,308.9,673.1,321.3 M555.7,292.9c-0.1,0-0.2,0-0.3,0
	c0.1-0.1,0.3-0.2,0.4-0.2c20.4-9,30-25,30-50.3c0.1-38.4-25.2-60.4-69.2-60.5l-43.5-0.1c-6.8,0-12.6,5.7-12.6,12.4l-0.4,208.3
	c0,6.3,6.2,12.5,12.5,12.5l47.6,0.1c21.6,0,39.6-6.1,52-17.8c12.5-11.8,19.1-28.9,19.1-49.4C591.4,320.6,578.7,301.2,555.7,292.9
	 M502.4,227.2c0-3.2,2-6.6,5.6-6.6h4.7c21.4,0,31,7.8,31,25c0,17.3-12.5,28.5-31.7,28.5h-4.1c-2.6,0-5.6-3-5.6-5.7L502.4,227.2z
	 M516.6,376.1h-8.9c-4.1,0-5.6-1.6-5.6-5.9l0.1-51.5c0-4,1.8-5.9,5.6-5.9h4.1c22.5,0,36.4,13.5,36.3,34.9
	C548.2,366.3,537.3,376.2,516.6,376.1 M422.2,181.6l-32.1-0.1c-8.2,0-12.5,3.4-14.6,11.6l-26.6,111.7l-25.8-111.7
	c-1.6-7.7-6.5-11.8-14.3-11.8l-33.3-0.1c-8.5,0-12.2,3.6-12.2,12.1l-0.4,208.6c0,6.6,5.6,12.5,12.1,12.5h15.2
	c6.8,0,12.5-5.7,12.5-12.4l0.3-127l29.5,128.3c1.7,6.5,7.9,11.4,14.6,11.4h3.2c6.4,0,12.6-5,14.3-11.7l30.3-127.7l-0.3,127
	c0,7,5.4,12.5,12.2,12.5h14.9c6.2,0,12.8-4.8,12.8-12.1l0.4-208.6C435,187.1,429.4,181.6,422.2,181.6"/>
</svg>
