<svg width="235" height="55" fill="none" xmlns="http://www.w3.org/2000/svg"><path d="M142.683 54.297c0-.25.042-.417.209-.625.833-.917 1.583-1.917 2.333-2.917 3.917-5.168 7.835-10.335 11.543-15.627 2.209-3.167 4.209-6.46 6.168-9.835.416-.708.416-.708.041-1.5-1.708-3.667-3.667-7.21-5.667-10.751a145.035 145.035 0 00-2.459-4.334c-.25-.417-.5-.792-.75-1.167-.291-.375-.625-.583-1.083-.583-.208 0-.375 0-.333-.292 0-.042-.042-.083-.084-.125-.125-.25-.083-.375.209-.375.416 0 .833.042 1.25.042 1.375 0 2.75.041 4.125-.042.167.125-.083.25.084.417.166.125.125.333-.084.375-.125.041-.25.041-.333.041-.792.126-1 .5-.792 1.25.125.376.292.709.458 1.042 1.126 2.25 2.251 4.543 3.376 6.793 1 2 1.958 3.959 2.917 5.959.083.167.167.375.292.542.208-.084.208-.292.291-.459 1.375-2.917 2.542-5.917 3.667-8.918.75-2 1.417-3.958 2.126-5.958.041-.084.041-.167.083-.292-.583.041-.708-.375-.792-.792.084-.125.209-.042.334-.042 1.25.042 2.542.042 3.792 0 .125 0 .291-.083.333.084.083.208.208.375.208.625 0 .083-.125.125-.208.125-.833.041-1.333.542-1.709 1.208a8.008 8.008 0 00-.875 1.917c-1.083 3.126-2.458 6.168-3.875 9.126-1.917 3.96-3.917 7.918-6.209 11.668-.709 1.167-1.417 2.292-2.292 3.334a.903.903 0 00-.208.333c-1.251 2.5-2.959 4.71-4.709 6.876-.625.792-1.334 1.542-2.001 2.292-.541.625-1.041 1.334-1.541 1.959-1.834 2.417-3.667 4.834-5.668 7.126-.208.25-.416.458-.625.708-.25.292-.542.5-.917.583-.083 0-.166.042-.166.167-.125.042-.292.042-.459.042zM.042 5.708c.25 0 .25-.209.291-.334C1.125 3.75 1.875 2.124 2.667.5a2.07 2.07 0 00.125-.292C2.875 0 3-.042 3.209.041c.208.084.25.167.166.375-.083.125-.166.25-.166.417.125.125.25.083.375.083 1.042.084 2.042.167 3.083.167h11.168c1.042 0 2.084-.083 3.084-.125.292 0 .459-.125.542-.375 0-.083.042-.125.083-.167.167-.375.292-.375.584-.083.083.083.125.167.083.25-.042.042-.042.125-.083.167-.875 1.792-1.626 3.625-2.376 5.5-.041.042-.041.125-.083.209-.25 0-.417-.167-.625-.292.375-.917.75-1.792 1.125-2.709.208-.5.208-.5-.292-.583-2.208-.5-4.417-.792-6.667-.792-.417 0-.459 0-.459.417l-.124 7.96-.25 13.876-.126 7.334v.167c-.041.25.084.375.334.375.5 0 1 .041 1.5.041a.53.53 0 01.25.042c-.042.5-.042.5-.5.458-1.25-.083-2.5-.166-3.75-.125-.5.042-.959.084-1.459.125-.167 0-.25 0-.292-.208 0-.125 0-.208.167-.208.25 0 .5 0 .75-.084.542-.083.917-.416 1.125-.958.209-.5.25-1 .334-1.5.125-1.5.125-3.042.041-4.543-.083-2.666-.166-5.375-.25-8.042-.125-4.792-.25-9.501-.416-14.252 0-.291.124-.625-.084-.792-.167-.166-.5-.041-.792-.041-1.416 0-2.833.041-4.25.208-.417 0-.834.084-1.209.167-.958.25-1.666.792-2.166 1.625C1.25 4.666 1 5.25.75 5.833c-.125.291-.125.291-.417.166C.25 5.958.125 5.874 0 5.874c.042-.041.042-.125.042-.166zM234.194 20.5c-.625 4.251-2.709 7.544-6.667 9.46-1.542.709-3.167 1-4.834 1.042-1.959.084-3.917 0-5.918 0-.916 0-1.791 0-2.708.042h-.542c.292-.459.583-.75 1.167-.709.375.042.75 0 1.167 0 .166 0 .25-.041.25-.25V18.584c0-2.375-.167-4.75-.292-7.126-.042-.75-.083-1.542-.125-2.292 0-.333-.083-.666-.167-1-.208-.708-.75-1-1.458-.958-.042 0-.084 0-.167.041-.5.042-.542.209-.708-.541.333-.042.708-.042 1.041-.042 2.667-.083 5.376-.25 8.043-.042 2.75.209 5.292.959 7.501 2.709 2.459 1.958 3.834 4.542 4.375 7.626.042.166.042.291.042.458-.042.25.042.459.083.709v1.708c-.041.167-.125.417-.083.667zm-16.669-1.75c-.041 1.168-.041 2.334-.083 3.501-.083 2.542-.125 5.042-.208 7.584 0 .459 0 .459.458.459 1.375.041 2.709.125 4.084.125 1.25 0 2.459-.084 3.667-.375 2.834-.667 4.917-2.292 6.042-5.043 1.084-2.667 1.376-5.375.709-8.209-.667-2.667-1.917-5-3.917-6.876-2.876-2.667-6.376-3.292-10.126-2.875-.209.042-.292.125-.292.333 0 .334-.042.625-.042.959-.083 3.5-.167 6.959-.292 10.418z" fill="#fff"/><path d="M234.278 18.084c-.042-.25-.125-.459-.084-.709h.084v.709zm-.084 2.416c-.041-.25.042-.457.084-.707v.708h-.084zM84.468 28.877c.167-.083.209-.208.25-.333 3.75-7.21 7.085-14.627 10.043-22.17.542-1.417 1-2.875 1.375-4.334 0-.083.042-.166.084-.25.041-.208 0-.291-.209-.291h-.958c-.458 0-.458 0-.667-.5.084-.084.209-.042.334-.042 1.666.125 3.333.083 5 0 .542-.042.542-.042.75.583h-.916c-.209 0-.334.084-.417.25-.209.417-.459.792-.667 1.167-4.25 8.543-8.501 17.002-12.626 25.545-.584 1.208-1.084 2.459-1.626 3.709-.125.291-.25.583-.5.833-.208.209-.291.209-.458-.042a1.29 1.29 0 01-.25-.541c-.834-2.667-1.959-5.21-3.042-7.751-3.25-7.584-6.626-15.085-10.085-22.545-.041-.083-.083-.166-.125-.291-.083-.209-.208-.292-.458-.292h-1C68.34 1 68.34 1 68.716 1c1.917.125 3.834.125 5.751 0 .125 0 .25-.042.334.041.041.125-.042.209-.042.292 0 .208-.125.25-.334.25-.5 0-.958 0-1.458.042-.125 0-.25 0-.333.041-.084.167.041.334.125.459 3.5 8.292 7 16.627 10.834 24.794.292.667.584 1.334.875 1.959zm26.628-19.919c0 .667-.041 1.25 0 1.875.084 1.334.084 2.709.084 4.042v9.335c0 1.333.041 2.709.041 4.042 0 .417.084.833.209 1.209.208.666.625 1.041 1.333 1.083h.167c.125 0 .208.042.208.208 0 .167-.083.25-.25.25-.458-.041-.916-.041-1.417-.083a27.474 27.474 0 00-3.208.042h-.084c-.083 0-.208 0-.208-.125s.042-.209.208-.209c.084 0 .125 0 .209-.041.833-.167 1.208-.584 1.292-1.459.083-1.042.166-2.083.208-3.125.167-3.292.333-6.584.458-9.876.084-2.292.25-4.584.042-6.876-.042-.334-.083-.667-.167-1-.208-.709-.666-1.167-1.417-1.292-.25-.042-.5-.084-.75-.084-.083 0-.166 0-.166-.125 0-.083.041-.166.125-.166h.333c1.5.041 3.042.083 4.542 0h.167c.125 0 .208 0 .208.166 0 .125 0 .167-.125.209-.5.208-.541.25-.291.75.208.417.5.792.791 1.167 1.459 1.917 3.042 3.667 4.584 5.459 3.667 4.167 7.501 8.167 11.335 12.21l1.875 2c.167-.125.083-.292.083-.417a417.826 417.826 0 00-.166-7.334c-.125-3.084-.25-6.21-.459-9.293-.083-1-.125-2-.208-3 0-.167-.042-.334-.083-.5-.167-.667-.459-.917-1.167-1-.083 0-.167 0-.25-.042-.083 0-.208 0-.208-.125s.041-.25.25-.25h.208a79.32 79.32 0 004.417 0h.167c.083 0 .166 0 .208.083 0 .125 0 .25-.125.292-.125.041-.25.041-.417.041-.291.042-.666-.083-.875.125-.208.209-.083.584-.125.876-.166 3.917-.375 7.876-.458 11.793-.042 2.292 0 4.584-.042 6.834 0 1.458-.083 2.917-.083 4.334 0 .166 0 .375-.208.458-.209.083-.376-.042-.542-.208a14.737 14.737 0 01-.125-.125c-1.584-2.042-3.459-3.834-5.168-5.751-4.875-5.334-9.834-10.585-14.585-16.044-.166-.125-.208-.25-.375-.333zm101.012 22.086h-1.833c-.25 0-.417-.084-.584-.292-1.291-1.542-2.5-3.167-3.667-4.792-1.083-1.459-2.125-2.959-3.292-4.376-.5-.625-1-1.208-1.625-1.708-.417-.334-.833-.584-1.375-.709-.375-.083-.417-.041-.417.334-.041 1.375-.041 2.75-.041 4.084-.042 1.75-.042 3.5-.042 5.25 0 .375 0 .75.083 1.125.125.459.334.625.792.667h.5c.083 0 .167 0 .167.125 0 .083 0 .208-.125.208h-.292a22.822 22.822 0 00-3.375 0h-.042c-.125 0-.292.084-.292-.125 0-.208.167-.166.292-.166h.292c.458-.042.666-.25.791-.709.125-.458.042-.875.042-1.333-.042-2.834-.125-5.71-.167-8.543-.083-4.209-.208-8.418-.291-12.626 0-.417-.042-.417-.417-.417h-1.042c-.208 0-.292-.083-.292-.292 0-.208.125-.25.292-.208 1 .042 2 .042 3 .042 1.209 0 2.417-.042 3.668-.042 1.291 0 2.542.167 3.75.75 1.917.917 2.917 2.459 3 4.584.084 2.25-.875 4-2.75 5.209-1.042.708-2.209 1.125-3.417 1.458-.125.042-.292.042-.458.167 2.75 4.209 5.667 8.418 9.167 12.335zm-12.709-12.46c.916.042 1.75-.042 2.625-.208 1.292-.209 2.458-.709 3.459-1.542 2.041-1.709 2.583-4.21 1.416-6.584-.75-1.542-1.958-2.584-3.667-2.959a12.388 12.388 0 00-3.292-.208c-.416.041-.416.041-.416.416 0 .834-.042 1.709-.042 2.542 0 2.834-.042 5.668-.083 8.543zm-18.711-.417c-1.459-.083-2.917-.041-4.417-.125-.334 0-.459.125-.625.375a303.78 303.78 0 00-2.584 5.168c-.667 1.291-1.375 2.583-1.958 3.917-.209.5-.459 1-.584 1.542-.083.25-.125.541-.125.791 0 .417.167.584.583.667a1.7 1.7 0 00.459.042c.167 0 .208.125.208.25 0 .166-.125.166-.25.166-.5 0-1-.041-1.5-.041-.833 0-1.667.041-2.5.041-.125 0-.334.084-.375-.125-.042-.208.041-.291.25-.333.416-.042.708-.333.958-.667.459-.541.834-1.166 1.209-1.75 1.708-2.584 3.167-5.334 4.625-8.043 1.917-3.625 3.751-7.292 5.626-10.917l1.5-2.75c.083-.167.167-.334.417-.25.083.04.166.04.125.166-.125.25.041.458.125.667.542 1.291 1.208 2.542 1.833 3.792 2.626 5.25 5.209 10.501 7.918 15.71a84.81 84.81 0 001.833 3.334c.334.583.751.916 1.459.833.167 0 .292 0 .292.209 0 .25-.167.208-.292.208-1.625-.042-3.25-.084-4.917 0-.167 0-.334.041-.292-.209 0-.125.042-.25.167-.208.25 0 .458 0 .708-.083.417-.125.584-.417.459-.792-.042-.208-.167-.417-.251-.583a488.471 488.471 0 00-5.125-10.543c-.125-.292-.292-.375-.625-.375-1.417-.084-2.876-.084-4.334-.084zm4.5-.583c-.583-1.584-3.917-7.918-4.417-8.376-1.667 2.667-3.292 5.334-4.584 8.293 3.042.166 6.001.208 9.001.083zM36.67 30.96c0-.208.126-.291.25-.291.334-.042.626-.084.96-.084.25 0 .333-.125.333-.375-.042-.75-.042-1.541-.042-2.291-.042-2.25-.042-4.46-.083-6.71 0-.666-.042-1.333-.042-2 0-.333 0-.333-.375-.375-2.667-.167-5.376-.208-8.043-.208-2.083 0-4.208.125-6.292.208-.417 0-.417 0-.417.459a619.474 619.474 0 01-.208 9c0 .626-.042 1.25-.042 1.834 0 .25.084.333.292.333.333 0 .625.042.958.084.209.041.334.125.334.375-.125.083-.25.041-.375.041-1.125-.125-2.25-.083-3.334-.083-.125 0-.25 0-.375-.041-.042 0-.125-.084-.125-.167 0-.084.083-.084.125-.125.417-.042.833-.125 1.25-.125.292 0 .334-.125.334-.375.041-1.834.083-3.626.041-5.46-.166-4.75-.291-9.584-.417-14.418v-.958c0-.167-.083-.25-.25-.25h-1.041c.083-.458.083-.5.5-.458 1.375.125 2.75.083 4.125 0h.209c-.042.291-.25.416-.542.416-.25 0-.542.042-.792.042s-.333.083-.333.333c-.042 1.125-.084 2.25-.084 3.334-.041 1.667-.125 3.375-.166 5.042 0 .542 0 .542.541.584H37.38c.792 0 .792 0 .792-.834-.042-2.583-.083-5.167-.167-7.75V9.5c-.125-.5-.041-.459-.625-.5a2.46 2.46 0 01-.583-.084c-.208-.041-.334-.166-.292-.416 1.584.083 3.167.125 4.792 0-.041.208-.125.375-.333.375-.292.041-.583.125-.833.125s-.334.125-.334.375c0 1.083-.041 2.208-.083 3.292-.083 3.833-.208 7.667-.292 11.501-.041 1.875-.125 3.75-.166 5.626v.333c0 .417 0 .417.416.459.334.041.625.041.959.083.083 0 .166 0 .166.125 0 .083-.041.166-.166.166h-.334a14.497 14.497 0 00-3.292 0c-.125.042-.208 0-.333 0zm113.473.042c-.125-.083-.292-.041-.417-.041-3.417 0-6.834-.042-10.251.041-.834 0-1.709.042-2.542.167h-.25a.228.228 0 01-.125-.209c0-.083.083-.125.125-.125.083 0 .208 0 .291-.041.75-.084 1.25-.5 1.459-1.209.125-.5.167-1 .167-1.542 0-4.458 0-8.917-.084-13.334-.041-2.126-.25-4.251-.458-6.376 0-.125-.042-.209-.042-.334-.125-.625-.542-.958-1.167-1.083-.125 0-.25-.042-.416-.042-.125-.041-.125-.125-.125-.25 0-.083.041-.166.166-.125h.167c1.125.25 2.292.292 3.417.292 1.917 0 3.834.042 5.751-.125 1-.083 1.958-.208 2.917-.458a.937.937 0 01.583.041c.334.209.709.375 1.042.584.167.083.292.166.25.375-.042.208-.208.208-.375.25-.5.041-1 0-1.5-.042-1.625-.125-3.251-.125-4.834-.125h-3.167c-.459 0-.459-.083-.5.5a201.875 201.875 0 00-.084 5.042c-.041 1.376-.041 2.75-.083 4.167 0 .417 0 .459.417.417 1.167-.042 2.292.083 3.459-.083.5-.042.916-.209 1.125-.75.125-.292.208-.292.5-.167.791.375 1.625.792 2.417 1.167.083.042.25.042.166.25-.041.125-.125.25-.333.25a5.117 5.117 0 00-.792-.083c-1.333-.125-2.667-.084-4-.084h-2.584c-.417 0-.458 0-.458.417-.042 1.584-.125 3.167-.125 4.75-.042 2.21-.042 4.418-.084 6.585v.166c0 .542-.041.5.459.459.708-.042 1.417-.084 2.083-.125 1.459-.125 2.876-.209 4.334-.375 1.084-.084 2.209-.209 3.251-.5 1.083-.292 2.041-.834 2.792-1.75.041-.084.125-.126.166-.209.084-.083.167-.083.25 0 .084.083.209.167.084.292a1.1 1.1 0 01-.209.25c-1.292 1.542-2.458 3.209-3.542 4.875-.083.084-.125.209-.208.292-.084.125-.167.167-.292.083-.125-.083-.208-.166-.083-.333.333-.458.667-.958 1-1.458.167-.042.292-.125.292-.334zm-94.386-.125h-2.042c-2.96 0-5.918-.042-8.918.083a5.98 5.98 0 00-1.209.125c-.208.042-.333 0-.333-.25.125-.125.292-.041.417-.083.75-.125 1.167-.5 1.333-1.208.084-.375.125-.709.125-1.084 0-4.042.042-8.084-.041-12.085a60.456 60.456 0 00-.459-6.167c-.125-.958-.5-1.25-1.25-1.333-.125 0-.333.041-.333-.167.041-.292.25-.167.375-.125a12.8 12.8 0 002.542.25c1.916.042 3.833.042 5.75-.083.917-.084 1.834-.167 2.709-.417.208-.042.333-.042.5.041.333.167.625.376.959.542.125.084.25.167.208.334-.042.166-.209.208-.334.208-.166 0-.333.042-.5 0-2.75-.208-5.5-.125-8.25-.125-.417 0-.417 0-.417.417-.042 2.75-.125 5.5-.167 8.25v.292c-.042.25.083.334.292.334 1.083-.042 2.125.041 3.208-.084.5-.041.917-.166 1.126-.708.083-.208.208-.25.416-.167.75.375 1.542.75 2.292 1.125.084.042.167.084.125.167-.041.125-.083.208-.208.25h-.25c-2.209-.25-4.417-.167-6.626-.167-.375 0-.375 0-.375.417l-.125 4.542c-.083 2-.042 4-.042 6.001 0 .458-.083.458.417.417 2.625-.209 5.209-.334 7.834-.709 1.417-.208 2.75-.708 3.71-1.875.04-.042.082-.083.082-.125.084-.083.167-.042.25.042.084.083.125.166.042.25a.908.908 0 00-.167.208c-1.208 1.417-2.291 2.959-3.292 4.542-.041.042-.083.125-.125.167-.083.125-.125.208-.291.125-.167-.083-.125-.208-.042-.333.292-.417.583-.834.833-1.25.084-.209.209-.334.25-.584zm49.63.125a47.58 47.58 0 00-4.875 0c.041-.458.041-.458.416-.458.25 0 .5 0 .751-.084.5-.125.75-.5.833-1 .125-.875.083-1.75.083-2.625-.041-2.917-.125-5.834-.208-8.751l-.25-10.418v-.208c0-.375 0-.375-.375-.375-.292 0-.584-.042-.834-.042-.166 0-.291-.042-.25-.25 0-.208.167-.167.292-.167 1.167.042 2.292.042 3.459.042.417 0 .833-.042 1.25-.042.125 0 .208 0 .208.167 0 .125-.041.25-.166.25-.334.042-.709.042-1.042.042-.417.041-.417.041-.417.458l-.25 10.668-.25 9.793c0 .542 0 1.083.083 1.625.125.667.375.917 1.042.958h.292c.167 0 .167 0 .208.417zm96.053 9.335c.417.416.459 1 .5 1.541.042.542 0 1.126.125 1.667-.458.084-.458.084-.541-.291-.084-.417-.084-.834-.084-1.25v-.459c-.083-.75-.291-.959-1.042-.959h-.791c-.25 0-.375.084-.334.334v2.375c0 .167-.041.25-.208.25-.167 0-.25-.041-.25-.25V37.17c0-.209.083-.25.292-.25h1.708c.709.041 1.125.374 1.25 1.083.125.5.084 1-.041 1.5-.125.375-.334.584-.584.834zm-2.167-1.542v.958c0 .25.084.334.334.334h.75c1 .041 1.25-.542 1.292-1.334 0-.125-.042-.25-.042-.375-.125-.5-.375-.75-.875-.792h-1.167c-.208 0-.292.084-.292.292v.917zm14.544-.667c-.083.25-.083.417-.083.542v4.667c0 .125-.084.208-.209.208-.167 0-.25-.083-.25-.25V37.17c0-.125-.042-.25.125-.292.167 0 .334-.083.417.125.125.292.292.625.417.917.583 1.333 1.208 2.709 1.791 4.042.042.125.084.25.209.333.125-.083.083-.25.083-.375v-4.959c0-.125.084-.166.209-.166.125 0 .208.041.208.166v6.084c0 .125.083.334-.167.334-.208 0-.333 0-.458-.209-.25-.583-.542-1.208-.792-1.791a223.75 223.75 0 00-1.375-3.084c0 .125-.042 0-.125-.167zm-54.132 5.417c.292-.916.584-1.791.875-2.667.417-1.208.792-2.417 1.209-3.667.083-.25.208-.333.458-.333s.334.125.417.333c.625 2 1.292 4 1.917 6.001.042.125.167.292-.042.375-.208.083-.417 0-.458-.208-.167-.5-.334-1-.459-1.542-.083-.25-.166-.334-.458-.334h-1.917c-.25 0-.333.084-.375.292-.125.459-.292.917-.417 1.375-.208.417-.208.417-.75.375zm2.542-5.917h-.083c-.333 1.084-.667 2.125-1 3.25h2.125a147.408 147.408 0 01-1.042-3.25zm33.046 2.709c0 .666-.084 1.291-.292 1.917a3.149 3.149 0 01-.542.958c-.708.833-1.875.833-2.583 0-.209-.25-.375-.5-.459-.833-.458-1.376-.458-2.792.042-4.168.125-.375.333-.666.625-.958a1.56 1.56 0 012.167 0c.333.292.583.708.708 1.125.25.625.334 1.292.334 1.959zm-.459.041c0-.291 0-.583-.041-.833-.084-.584-.209-1.167-.584-1.625-.541-.709-1.458-.667-2 0-.208.25-.333.5-.417.791-.291.917-.291 1.834-.125 2.75.084.418.209.793.417 1.168.333.5.792.708 1.375.583.459-.083.709-.375.917-.75.375-.667.458-1.375.458-2.084zm33.254-.083v-2.959c0-.375 0-.375.375-.375h2.334c.208 0 .292.084.292.292 0 .208-.084.292-.292.292h-1.792c-.417 0-.417 0-.417.458v1.584c0 .208.084.291.292.291h1.709c.208 0 .291.042.291.292 0 .208-.083.292-.291.292h-1.584c-.375 0-.417 0-.417.375v1.833c0 .375 0 .375.417.375h1.917c.25 0 .333.084.292.334 0 .208-.167.208-.334.208h-1.75c-.333 0-.708.125-.917-.083-.25-.209-.083-.625-.083-.959-.042-.708-.042-1.458-.042-2.25zm-7.209.083a4.708 4.708 0 00.209 1.709c.083.291.208.541.458.792.5.5 1.25.5 1.709-.042a2.24 2.24 0 00.416-.834c.042-.125.084-.25.084-.375.041-.166.208-.166.333-.166.167 0 .167.125.125.25-.083.458-.25.958-.5 1.333-.708 1.084-2.084 1.042-2.75-.041-.334-.542-.417-1.126-.5-1.709a7.143 7.143 0 01.125-2.667c.083-.375.25-.708.458-1.042.625-.875 2.209-1.125 2.875.25.125.292.25.584.25.917 0 .125 0 .25-.166.25-.125 0-.25 0-.292-.167-.042-.208-.083-.458-.208-.666-.25-.542-.667-.75-1.25-.709-.459.042-.751.292-.959.667-.292.5-.417 1.042-.458 1.584.041.166.041.416.041.666zm-14.626-.083v-2.917c0-.375 0-.375.375-.375h2.292c.208 0 .333.042.333.25 0 .25-.083.333-.333.333h-1.792c-.417 0-.417 0-.417.417v1.584c0 .25.083.333.333.333h1.667c.25 0 .334.083.292.333 0 .209-.083.25-.292.25h-1.583c-.417 0-.417 0-.417.417v1.75c0 .459 0 .459.458.459h1.834c.167 0 .292.041.292.25 0 .166-.042.291-.25.291h-2.542c-.25 0-.25-.125-.25-.333v-3.042zm-27.379.042v-2.96c0-.374 0-.416.375-.416h2.167c.375 0 .375.042.375.292 0 .333-.208.292-.416.292h-1.709c-.333 0-.375 0-.375.375v1.666c0 .25.083.334.333.334h1.667c.209 0 .292.083.292.292 0 .208-.083.291-.292.291h-1.458c-.5 0-.5 0-.5.5v2.417c0 .167-.084.209-.209.209-.166 0-.208-.084-.208-.209v-1.583c-.042-.542-.042-1-.042-1.5zm-11.001.125v-2.709c0-.333 0-.375-.375-.375h-1.084c-.208 0-.291-.042-.291-.292 0-.25.125-.25.333-.25h3.459c.208 0 .333.042.333.292 0 .167-.083.25-.25.25h-1.167c-.375 0-.375 0-.375.417v5.375c0 .167.042.375-.25.375-.291 0-.291-.166-.291-.375-.042-.875-.042-1.792-.042-2.708zm17.46-.209v-2.917c0-.166-.041-.375.209-.333.125 0 .208.042.208.167v5.625c0 .209.083.292.292.292h1.792c.208 0 .291.042.291.292 0 .208-.125.25-.291.25h-2.292c-.209 0-.25-.084-.25-.25v-1.292c.041-.667.041-1.25.041-1.834z" fill="#fff"/></svg>