<svg data-name="Layer 1" xmlns="http://www.w3.org/2000/svg" viewBox="0 0 560.6 789.9"><path d="M660-.4v26.7c-20.6-6.4-37-9.6-49.1-9.6q-32.1 0-45.9 25.6a232.4 232.4 0 00-12.8 31L383.4 739.7v1.1l-12.8 49.1h-63L98.3 63.7c-3.6-14.2-10.7-24.9-21.4-32A66.7 66.7 0 0038.5 20 125.2 125.2 0 00.1 26.4V-.4h257.4v26.7c-13.5-4.3-26-6.4-37.4-6.4s-20.3 2.5-26.7 7.5-9.6 12.1-9.6 21.4q0 9.6 2.1 15l184.8 634.4L514.8 90.4l7.5-26.7a54.1 54.1 0 002.1-16c0-20.6-12.8-31-38.4-31-14.2 0-30.6 3.2-49.1 9.6V-.4z" style="isolation:isolate" fill="#fff" opacity=".8"/></svg>